Coordinates
version=1
nRows=14
nColumns=36
inDegrees=yes

Units are S.I. units (second, meters, Newtons, ...)
If the header above contains a line with 'inDegrees', this indicates whether rotational values are in degrees (yes) or radians (no).

endheader
time	pelvis_tilt	pelvis_list	pelvis_rotation	pelvis_tx	pelvis_ty	pelvis_tz	hip_flexion_r	hip_adduction_r	hip_rotation_r	knee_angle_r	knee_angle_r_beta	ankle_angle_r	subtalar_angle_r	mtp_angle_r	hip_flexion_l	hip_adduction_l	hip_rotation_l	knee_angle_l	knee_angle_l_beta	ankle_angle_l	subtalar_angle_l	mtp_angle_l	lumbar_extension	lumbar_bending	lumbar_rotation	arm_flex_r	arm_add_r	arm_rot_r	elbow_flex_r	pro_sup_r	arm_flex_l	arm_add_l	arm_rot_l	elbow_flex_l	pro_sup_l
      6.33333330	    -10.87979958	     20.14276110	     28.64825574	      0.67064501	      0.69456309	      0.00707265	    103.24295617	    -18.92106568	     38.73353482	     59.03657985	      1.03038270	    -11.66303379	     -7.47602191	     -7.49999987	     77.61109089	     23.56444445	    -24.61894143	    100.57397057	      1.75534693	     15.08599717	    -19.64417914	     -7.49999987	    -52.74856211	    -12.91314570	    -30.61136979	     94.65029585	      7.32025394	     71.02086139	    102.78403560	     65.26081128	    108.63348334	    -12.82629388	     79.65311036	    117.11755392	     61.14704701
      6.35000000	    -11.38830450	     20.05450022	     28.51311999	      0.67443975	      0.68963756	      0.01000147	    103.64865463	    -18.62101130	     39.05711606	     58.62652965	      1.02322597	    -11.54443606	     -7.14271738	     -7.49999987	     78.19352745	     23.38613613	    -24.71265286	    101.23358180	      1.76685932	     16.34219725	    -17.98596574	     -7.49999987	    -52.09551604	    -13.60523206	    -30.32010528	     93.59530233	      7.84405182	     72.24348680	    101.37356966	     65.63061528	    106.76295361	    -13.47037036	     79.09841271	    117.30982851	     61.23904557
      6.36666670	    -11.90009315	     19.76064286	     28.59020807	      0.66844911	      0.67782705	      0.00716341	    104.06392131	    -18.44361651	     39.22680753	     58.48069126	      1.02068061	    -11.70789695	     -7.34525693	     -7.49999987	     78.85667888	     23.03448171	    -24.74749908	    101.96822991	      1.77968134	     17.42100171	    -16.64733340	     -7.49999987	    -51.78632461	    -13.58641804	    -30.15424564	     94.35729530	      7.36182631	     72.06066349	    101.79379023	     65.94633486	    106.70759201	    -12.98845909	     78.72929470	    116.84218716	     61.44093197
      6.38333330	    -12.18247630	     19.50108307	     28.64146970	      0.67228833	      0.67070285	      0.00983966	    104.29411103	    -18.25027824	     39.34859523	     58.55842432	      1.02203731	    -11.82077936	     -7.50475065	     -7.49999987	     79.35089932	     22.65335483	    -24.74016596	    102.77998489	      1.79384914	     18.46143022	    -15.59485118	     -7.49999987	    -51.29653425	    -13.86312235	    -29.90860596	     94.53962890	      7.72757146	     72.67782771	    101.98338044	     66.17201576	    106.39130019	    -12.91612685	     78.96364620	    116.67576000	     61.75955612
      6.40000000	    -12.21125851	     19.26051656	     28.69494435	      0.67180363	      0.66506027	      0.01021076	    104.30870980	    -18.15232279	     39.40682854	     58.83545670	      1.02687244	    -11.74071905	     -7.49579017	     -7.49999987	     79.68088516	     22.33547953	    -24.67704866	    103.48774832	      1.80620194	     18.81875626	    -15.54767280	     -7.49999987	    -51.00904818	    -14.03810769	    -29.99399997	     94.87990784	      7.91745241	     72.37336742	    101.74064238	     66.18215088	    106.79181793	    -12.61677770	     78.71481202	    116.60377542	     61.74884529
      6.41666670	    -12.35635012	     18.90474531	     28.72840382	      0.66622451	      0.65872122	      0.01256621	    104.35908490	    -18.03497433	     39.38085220	     59.00557205	      1.02984151	    -11.61820043	     -7.51258635	     -7.49999987	     80.13879279	     21.82841762	    -24.52375911	    104.14224479	      1.81762506	     20.30709192	    -13.82283305	     -7.49999987	    -50.45245109	    -14.13397289	    -29.94323277	     95.26838826	      7.94834693	     71.23394697	    101.45795992	     65.92979266	    107.53480841	    -12.30159694	     78.07603520	    116.28196205	     61.73556171
      6.43333330	    -12.17215425	     18.85416680	     28.75888532	      0.67085737	      0.65957427	      0.01067028	    103.98394924	    -18.16767973	     39.37459955	     59.03907771	      1.03042629	    -11.59715591	     -7.32933637	     -7.49999987	     80.02086532	     21.70491102	    -24.37542535	    104.44725458	      1.82294849	     20.53931856	    -13.74300390	     -7.49999987	    -50.47885282	    -14.28271481	    -30.04592873	     94.77307177	      8.06112959	     71.78185547	    101.58314939	     65.96805929	    107.06787280	    -12.32553549	     78.51515088	    116.42574308	     61.75483523
      6.45000000	    -12.33995454	     18.72632871	     28.71499637	      0.67047888	      0.65650431	      0.01015100	    103.91065832	    -18.20081199	     39.36340393	     58.97997683	      1.02939479	    -11.18494410	     -6.73338951	     -7.49999987	     80.12043630	     21.46516318	    -24.30901336	    104.66533090	      1.82675464	     21.63293780	    -12.50281599	     -7.49999987	    -49.79861211	    -14.38982399	    -29.99679023	     94.51345575	      8.48122264	     72.27089367	    101.21473597	     64.06650437	    106.67371636	    -12.83743396	     78.67086477	    117.19189075	     61.76183457
      6.46666670	    -12.57926923	     18.49889709	     28.76434859	      0.66565189	      0.65739819	      0.01313934	    103.76501483	    -18.31427226	     39.31715951	     58.79223666	      1.02611810	    -11.15092148	     -6.52919925	     -7.49999987	     80.29642543	     21.23630702	    -24.18613817	    104.64744316	      1.82644244	     21.78317195	    -12.47272167	     -7.49999987	    -49.59927609	    -14.36412138	    -29.94370980	     94.97117746	      8.28853475	     71.71935223	    100.75023218	     64.05791352	    107.11839496	    -12.92475382	     78.50435279	    117.02704791	     61.74132292
      6.48333330	    -12.40178182	     18.50092593	     28.83610859	      0.66038466	      0.65395510	      0.00973073	    103.32153601	    -18.63987779	     39.21999901	     58.71231070	      1.02472313	    -10.98020067	     -5.84434718	     -7.49999987	     80.03080520	     21.06901956	    -24.15060617	    104.59535354	      1.82553330	     22.04951906	    -12.06941373	     -7.49999987	    -49.71155133	    -14.02461578	    -30.18982742	     95.56651405	      8.28047376	     70.23362097	     99.72596482	     64.08120227	    108.17805085	    -12.54595600	     78.15301294	    116.30040883	     61.66796190
      6.50000000	    -12.09103813	     18.73311969	     28.83252039	      0.66586002	      0.66309903	      0.01351989	    102.55468590	    -19.08986420	     39.15197224	     58.27428116	      1.01707808	    -10.68976219	     -5.09118768	     -7.49999987	     79.37633014	     21.14229185	    -24.14467666	    104.21037343	      1.81881413	     22.12569565	    -11.97093634	     -7.49999987	    -50.04427541	    -14.08715716	    -30.08668235	     95.23544172	      8.30730699	     71.22440218	     98.63980482	     64.04005835	    107.45389160	    -13.39695265	     79.15382473	    115.68009730	     61.87830673
      6.51666670	    -11.99159768	     18.94712183	     28.76062024	      0.67119549	      0.66753851	      0.01132431	    101.87292829	    -19.43329456	     39.11614541	     57.62591702	      1.00576199	    -10.51842709	     -4.67356975	     -7.49999987	     78.66762786	     21.26714933	    -24.12475675	    103.63192482	      1.80871830	     22.20459949	    -11.82069984	     -7.49999987	    -50.05999036	    -14.41353235	    -30.00540700	     94.57012210	      8.28793104	     72.07144336	     99.56123606	     64.17510726	    106.50864023	    -13.48369615	     79.22494335	    116.29154018	     61.90925514
      6.53333330	    -12.09000660	     19.08322246	     28.52258894	      0.67054453	      0.66469455	      0.01173993	    101.46703471	    -19.47082460	     39.08336347	     57.09147870	      0.99643428	    -10.19078224	     -4.25197100	     -7.49999987	     78.24197566	     21.20370039	    -24.20516325	    103.14600933	      1.80023747	     22.42965295	    -11.50245977	     -7.49999987	    -49.71905834	    -14.90614012	    -29.84791114	     94.96286237	      8.40239949	     72.66572162	    101.48766791	     64.34254966	    106.03117643	    -12.93747705	     76.80305167	    117.48109685	     61.85977139
      6.55000000	    -12.08492881	     19.35110923	     28.43174939	      0.66455304	      0.66367265	      0.00795010	    101.18682700	    -19.70308305	     39.06835171	     56.79217622	      0.99121046	    -10.02187183	     -4.03740762	     -7.49999987	     77.83001272	     21.34397356	    -24.41446493	    102.65917848	      1.79174067	     22.32479202	    -11.68428714	     -7.49999987	    -49.54318740	    -15.24110935	    -30.25921480	     95.77289259	      7.54417522	     71.38650345	    103.53588681	     64.76046299	    106.73716398	    -11.80926512	     74.63242581	    117.12050806	     61.81207771
